<?xml version="1.0" encoding="UTF-8"?> <svg xmlns="http://www.w3.org/2000/svg" xmlns:xlink="http://www.w3.org/1999/xlink" width="48px" height="48px" viewBox="0 0 48 48"> <!-- Generator: Sketch 50.2 (55047) - http://www.bohemiancoding.com/sketch --> <title>icon</title> <desc>Created with Sketch.</desc> <defs></defs> <g id="Page-1" stroke="none" stroke-width="1" fill="none" fill-rule="evenodd"> <g id="Icons" transform="translate(-129.000000, -344.000000)" fill-rule="nonzero"> <g id="feedback" transform="translate(70.000000, 322.000000)"> <g id="icon" transform="translate(59.000000, 21.000000)"> <path d="M46.15,11.58 L42.89,10.48 L42,7.18 C41.8169727,6.5387685 41.2854284,6.05728507 40.6292759,5.93837069 C39.9731233,5.81945631 39.3064164,6.08378095 38.91,6.62 L36.91,9.38 L33.48,9.25 C32.8007842,9.18806296 32.147465,9.52637841 31.8060799,10.1168244 C31.4646948,10.7072703 31.4974482,11.4422605 31.89,12 L33.89,14.81 L32.7,18.05 C32.4707116,18.6732046 32.6183735,19.3726553 33.08,19.85 C33.5352816,20.3403348 34.2347236,20.5200797 34.87,20.31 L38.15,19.31 L40.86,21.42 C41.0815146,21.5960644 41.3422146,21.7161236 41.62,21.77 C41.9834143,21.8407206 42.3600403,21.7879226 42.69,21.62 C43.2990282,21.3448119 43.6903171,20.7383141 43.69,20.07 L43.69,16.63 L46.54,14.71 C47.0923102,14.3378604 47.3855194,13.6844834 47.2963886,13.0244909 C47.2072578,12.3644984 46.7512382,11.8123035 46.12,11.6 L46.15,11.58 Z M42.49,15 C42.0181547,15.3249699 41.7315738,15.8571916 41.72,16.43 L41.72,19.5 L39.31,17.61 C39.0854538,17.4346434 38.8208646,17.3178118 38.54,17.27 C38.2635145,17.2168546 37.9781062,17.2340478 37.71,17.32 L34.79,18.23 L35.84,15.36 C36.0319526,14.8160934 35.9500534,14.2130169 35.62,13.74 L33.84,11.25 L36.9,11.36 C37.4778769,11.3839374 38.0294898,11.1175121 38.37,10.65 L40.2,8.2 L41,11.16 C41.161228,11.7109156 41.5782399,12.1502674 42.12,12.34 L45.02,13.34 L42.49,15 Z" id="Shape" fill="#FEBC1C"></path> <path d="M32.38,4.86 C32.5585197,5.17762017 32.8956611,5.37300896 33.26,5.37 C33.4275258,5.37083816 33.5925776,5.32957521 33.74,5.25 C33.9721493,5.12145189 34.1436858,4.90590291 34.2168345,4.6508202 C34.2899832,4.39573748 34.2587454,4.12203998 34.13,3.89 L33.09,2 C32.9113672,1.68739261 32.5795296,1.49383093 32.2194873,1.49222777 C31.859445,1.49062461 31.5258968,1.68122354 31.3444873,1.99222777 C31.1630778,2.30323201 31.1613672,2.68739261 31.34,3 L32.38,4.86 Z" id="Shape" fill="#FEBC1C"></path> <path d="M36.5,4 L36.56,4 C37.0933335,4.00066706 37.5333337,3.58266685 37.56,3.05 L37.56,2.05 C37.5876142,1.49771525 37.1622847,1.02761424 36.61,1 C36.0577153,0.972385763 35.5876142,1.39771525 35.56,1.95 L35.56,2.95 C35.531575,3.49883694 35.9513739,3.96776124 36.5,4 Z" id="Shape" fill="#FEBC1C"></path> <path d="M29,6.86 L29.87,7.34 C30.0174224,7.41957521 30.1824742,7.46083816 30.35,7.46 C30.8016888,7.45417058 31.1933849,7.14625002 31.3056952,6.70870785 C31.4180055,6.27116568 31.2230396,5.8126581 30.83,5.59 L30,5.11 C29.5167508,4.83385763 28.9011424,5.00175084 28.625,5.485 C28.3488576,5.96824916 28.5167508,6.58385763 29,6.86 Z" id="Shape" fill="#FEBC1C"></path> <path d="M9,43.09 C8.34278115,43.09 7.81,43.6227811 7.81,44.28 C7.81,44.9372189 8.34278115,45.47 9,45.47 C9.65721885,45.47 10.19,44.9372189 10.19,44.28 C10.19,43.9643924 10.0646254,43.6617112 9.84145707,43.4385429 C9.61828878,43.2153746 9.31560762,43.09 9,43.09 Z" id="Shape" fill="#3D3D63"></path> <path d="M41,34.65 C41.0093564,33.4604213 40.4384097,32.340918 39.47,31.65 C40.4004275,30.5706706 40.6132789,29.0467831 40.0142052,27.7538183 C39.4151315,26.4608534 38.1149573,25.6380011 36.69,25.65 L29.56,25.65 C28.9611114,25.6529365 28.3727577,25.8077664 27.85,26.1 C27.6836012,25.7588981 27.6243365,25.3754206 27.68,25 C27.9880952,23.4230248 28.0722572,21.81048 27.93,20.21 C27.6388605,16.8720573 24.6981571,14.4013293 21.36,14.69 C20.8040421,14.7382525 20.2901527,15.0058053 19.931793,15.4335854 C19.5734334,15.8613655 19.4000773,16.4141896 19.45,16.97 L19.51,17.64 C19.7560161,20.4945601 19.0757397,23.3524223 17.57,25.79 L13.52,31.09 C13.1275279,29.984375 12.0832109,29.2441503 10.91,29.24 L7.05,29.24 C5.52076565,29.2399116 4.27644338,30.4708541 4.26,32 L4.26,32.25 L1.66,32.25 C1.10771525,32.25 0.66,32.6977153 0.66,33.25 C0.66,33.8022847 1.10771525,34.25 1.66,34.25 L4.26,34.25 L4.26,43.87 L1.66,43.87 C1.10771525,43.87 0.66,44.3177153 0.66,44.87 C0.66,45.4222847 1.10771525,45.87 1.66,45.87 L4.26,45.87 L4.26,46.12 C4.26,47.6608745 5.50912555,48.91 7.05,48.91 L10.91,48.91 C12.1359345,48.8954013 13.2097951,48.0849404 13.56,46.91 C15.8549802,48.2073296 18.4437532,48.895833 21.08,48.91 L35.77,48.91 C37.7858393,48.91 39.42,47.2758393 39.42,45.26 C39.4230143,44.4384654 39.1441669,43.64075 38.63,43 C39.6464745,42.3370479 40.2682461,41.2133642 40.29,40 C40.2879349,39.1460629 39.9832227,38.3205055 39.43,37.67 C40.4154059,36.9803838 41.0016293,35.8527438 41,34.65 Z M11.74,39.65 L11.74,44 L11.74,46.08 C11.7346074,46.5140517 11.3840517,46.8646074 10.95,46.87 L7.05,46.87 C6.61369505,46.87 6.26,46.516305 6.26,46.08 L6.26,32 C6.26,31.563695 6.61369505,31.21 7.05,31.21 L10.91,31.21 C11.3440517,31.2153926 11.6946074,31.5659483 11.7,32 L11.74,39.65 Z M29.6,27.65 L36.69,27.65 C37.6012698,27.6500001 38.3399999,28.3887302 38.3399999,29.3 C38.3399999,30.2112698 37.6012698,30.9499999 36.69,30.95 L29.56,30.95 C28.6487302,30.9499999 27.9100001,30.2112698 27.9100001,29.3 C27.9100001,28.3887302 28.6487302,27.6500001 29.56,27.65 L29.6,27.65 Z M27.19,46.9 L21.08,46.9 C18.6939555,46.8965711 16.3513162,46.2617469 14.29,45.06 C13.9330277,44.8517348 13.7096749,44.4731707 13.7,44.06 L13.7,34.49 C13.6981067,34.171224 13.8241921,33.8650167 14.05,33.64 L14.14,33.54 L19.21,26.89 C20.9806919,24.0691479 21.7845588,20.7483705 21.5,17.43 L21.44,16.75 C21.44,16.7 21.44,16.65 21.53,16.64 C22.6163818,16.5307531 23.7002055,16.8703512 24.53,17.58 C25.3629979,18.2678087 25.882383,19.2632969 25.97,20.34 C26.0969879,21.7566361 26.0229207,23.1841139 25.75,24.58 C25.5398316,25.6311981 25.7871164,26.7221603 26.43,27.58 C25.8088483,28.6272265 25.774787,29.9215534 26.34,31 C24.5233631,31.13155 23.0836027,32.58559 22.9699873,34.4034367 C22.8563719,36.2212834 24.1038801,37.8432777 25.89,38.2 C25.5830857,38.7494994 25.4277812,39.3707173 25.44,40 C25.4473754,41.3667687 26.2197874,42.6142141 27.44,43.23 C27.0202296,43.838998 26.7937159,44.5603569 26.79,45.3 C26.7955044,45.8573874 26.9325568,46.4055973 27.19,46.9 Z M35.77,46.9 L30.42,46.9 C29.5087302,46.8999999 28.7700001,46.1612698 28.7700001,45.25 C28.7700001,44.3387302 29.5087302,43.6000001 30.42,43.6 L35.77,43.6 C36.6812698,43.6000001 37.4199999,44.3387302 37.4199999,45.25 C37.4199999,46.1612698 36.6812698,46.8999999 35.77,46.9 Z M36.64,41.6 L29.09,41.6 C28.1787302,41.6 27.44,40.8612698 27.44,39.95 C27.44,39.0387302 28.1787302,38.3 29.09,38.3 L36.64,38.3 C37.5512698,38.3 38.29,39.0387302 38.29,39.95 C38.29,40.8612698 37.5512698,41.6 36.64,41.6 Z M37.31,36.3 L26.63,36.3 C25.7187302,36.3 24.98,35.5612698 24.98,34.65 C24.98,33.7387302 25.7187302,33 26.63,33 L37.31,33 C38.2212698,33 38.96,33.7387302 38.96,34.65 C38.96,35.5612698 38.2212698,36.3 37.31,36.3 Z" id="Shape" fill="#000000"></path> </g> </g> </g> </g> </svg> 